<svg width="41" height="40" viewBox="0 0 41 40" fill="none" xmlns="http://www.w3.org/2000/svg">
<g id="Icon-Customer service" clip-path="url(#clip0_247_320)">
<path id="Vector" d="M13.8333 25.0001C13.8333 23.1591 12.3409 21.6667 10.5 21.6667C8.65905 21.6667 7.16667 23.1591 7.16667 25.0001V28.3334C7.16667 30.1744 8.65905 31.6667 10.5 31.6667C12.3409 31.6667 13.8333 30.1744 13.8333 28.3334V25.0001Z" stroke="white" stroke-width="2" stroke-linecap="round" stroke-linejoin="round"/>
<path id="Vector_2" d="M33.8333 25.0001C33.8333 23.1591 32.3409 21.6667 30.5 21.6667C28.6591 21.6667 27.1667 23.1591 27.1667 25.0001V28.3334C27.1667 30.1744 28.6591 31.6667 30.5 31.6667C32.3409 31.6667 33.8333 30.1744 33.8333 28.3334V25.0001Z" stroke="white" stroke-width="2" stroke-linecap="round" stroke-linejoin="round"/>
<path id="Vector_3" d="M7.16667 25.0001V20.0001C7.16667 16.4639 8.57142 13.0725 11.0719 10.572C13.5724 8.07151 16.9638 6.66675 20.5 6.66675C24.0362 6.66675 27.4276 8.07151 29.9281 10.572C32.4286 13.0725 33.8333 16.4639 33.8333 20.0001V25.0001" stroke="white" stroke-width="2" stroke-linecap="round" stroke-linejoin="round"/>
<path id="Vector_4" d="M30.5 31.6667C30.5 32.9928 29.4464 34.2646 27.5711 35.2023C25.6957 36.14 23.1522 36.6667 20.5 36.6667" stroke="white" stroke-width="2" stroke-linecap="round" stroke-linejoin="round"/>
</g>
<defs>
<clipPath id="clip0_247_320">
<rect width="40" height="40" fill="white" transform="translate(0.5)"/>
</clipPath>
</defs>
</svg>
