<svg width="40" height="40" viewBox="0 0 40 40" fill="none" xmlns="http://www.w3.org/2000/svg">
<g id="vuesax/outline/shield-tick">
<g id="shield-tick">
<path id="Vector" d="M8.09909 30.5992L8.09886 30.5991C7.22613 29.9483 6.42552 28.9206 5.84273 27.759C5.25988 26.5973 4.91666 25.3451 4.91666 24.2666V11.8666C4.91666 9.50736 6.67149 6.96177 8.89116 6.13513L8.89212 6.13477L17.2084 3.01826C17.2084 3.01823 17.2085 3.0182 17.2086 3.01817C17.9621 2.73661 18.9616 2.5874 19.9833 2.5874C21.0051 2.5874 22.0045 2.73661 22.758 3.01817C22.7581 3.0182 22.7582 3.01823 22.7583 3.01826L31.0745 6.13477L31.0755 6.13513C33.2952 6.96177 35.05 9.50736 35.05 11.8666V24.2499C35.05 25.3371 34.7066 26.5892 34.1241 27.7483C33.5416 28.9073 32.741 29.9313 31.8678 30.5824L31.8675 30.5826L24.7009 35.9326L24.7008 35.9325L24.6947 35.9373C23.412 36.9264 21.724 37.4332 20 37.4332C18.2774 37.4332 16.5852 36.927 15.2649 35.9486C15.2647 35.9484 15.2645 35.9483 15.2644 35.9482L8.09909 30.5992ZM17.7419 4.43145L17.7412 4.4317L9.42453 7.54837L9.42383 7.54863C8.59624 7.86019 7.85501 8.52248 7.32409 9.29061C6.793 10.059 6.43332 10.9898 6.43332 11.8832V24.2666C6.43332 25.161 6.74391 26.1892 7.20091 27.101C7.65779 28.0126 8.29328 28.8722 9.00084 29.4005L9.00088 29.4006L16.1672 34.7503C17.2292 35.5445 18.6282 35.9249 20.0021 35.9249C21.3761 35.9249 22.7783 35.5445 23.8478 34.7516L23.8491 34.7506L31.0158 29.4006L31.0167 29.3999C31.7314 28.8638 32.3669 28.005 32.8222 27.0943C33.2775 26.1837 33.5833 25.16 33.5833 24.2666V11.8666C33.5833 10.9804 33.2229 10.0538 32.6926 9.28645C32.162 8.51889 31.4223 7.85396 30.5976 7.5338L30.5976 7.53376L30.5921 7.5317L22.2754 4.41503L22.2755 4.41495L22.2664 4.41174C21.6282 4.18651 20.8002 4.08314 20.0007 4.08532C19.2021 4.0875 18.3752 4.19514 17.7419 4.43145Z" fill="#FAFAFA" stroke="#FAFAFA"/>
<path id="Vector_2" d="M17.4131 21.0536L17.7667 21.4071L18.1202 21.0536L24.4035 14.7703C24.6916 14.4822 25.175 14.4822 25.4631 14.7703C25.7512 15.0583 25.7512 15.5417 25.4631 15.8298L18.2964 22.9965C18.1451 23.1478 17.9579 23.2167 17.7667 23.2167C17.5754 23.2167 17.3882 23.1478 17.2369 22.9965L14.5535 20.3131C14.2655 20.0251 14.2655 19.5417 14.5535 19.2536C14.8416 18.9655 15.325 18.9655 15.6131 19.2536L17.4131 21.0536Z" fill="#FAFAFA" stroke="#FAFAFA"/>
</g>
</g>
</svg>
