<svg width="25" height="25" viewBox="0 0 25 25" fill="none" xmlns="http://www.w3.org/2000/svg">
<g id="sliders-h">
<path id="Vector" d="M24.2188 18.75H7.8125V17.9688C7.8125 17.5391 7.46094 17.1875 7.03125 17.1875H5.46875C5.03906 17.1875 4.6875 17.5391 4.6875 17.9688V18.75H0.78125C0.351562 18.75 0 19.1016 0 19.5312V21.0938C0 21.5234 0.351562 21.875 0.78125 21.875H4.6875V22.6562C4.6875 23.0859 5.03906 23.4375 5.46875 23.4375H7.03125C7.46094 23.4375 7.8125 23.0859 7.8125 22.6562V21.875H24.2188C24.6484 21.875 25 21.5234 25 21.0938V19.5312C25 19.1016 24.6484 18.75 24.2188 18.75ZM24.2188 10.9375H20.3125V10.1562C20.3125 9.72656 19.9609 9.375 19.5312 9.375H17.9688C17.5391 9.375 17.1875 9.72656 17.1875 10.1562V10.9375H0.78125C0.351562 10.9375 0 11.2891 0 11.7188V13.2812C0 13.7109 0.351562 14.0625 0.78125 14.0625H17.1875V14.8438C17.1875 15.2734 17.5391 15.625 17.9688 15.625H19.5312C19.9609 15.625 20.3125 15.2734 20.3125 14.8438V14.0625H24.2188C24.6484 14.0625 25 13.7109 25 13.2812V11.7188C25 11.2891 24.6484 10.9375 24.2188 10.9375ZM24.2188 3.125H14.0625V2.34375C14.0625 1.91406 13.7109 1.5625 13.2812 1.5625H11.7188C11.2891 1.5625 10.9375 1.91406 10.9375 2.34375V3.125H0.78125C0.351562 3.125 0 3.47656 0 3.90625V5.46875C0 5.89844 0.351562 6.25 0.78125 6.25H10.9375V7.03125C10.9375 7.46094 11.2891 7.8125 11.7188 7.8125H13.2812C13.7109 7.8125 14.0625 7.46094 14.0625 7.03125V6.25H24.2188C24.6484 6.25 25 5.89844 25 5.46875V3.90625C25 3.47656 24.6484 3.125 24.2188 3.125Z" fill="black"/>
</g>
</svg>
