<svg width="25" height="25" viewBox="0 0 25 25" fill="none" xmlns="http://www.w3.org/2000/svg">
<g id="th">
<path id="Vector" d="M7.29165 2.73438V6.64062C7.29165 7.28784 6.76699 7.8125 6.11978 7.8125H1.17188C0.524658 7.8125 0 7.28784 0 6.64062V2.73438C0 2.08716 0.524658 1.5625 1.17188 1.5625H6.11978C6.76699 1.5625 7.29165 2.08716 7.29165 2.73438ZM16.1458 14.4531V10.5469C16.1458 9.89966 15.6212 9.375 14.974 9.375H10.026C9.37881 9.375 8.85415 9.89966 8.85415 10.5469V14.4531C8.85415 15.1003 9.37881 15.625 10.026 15.625H14.9739C15.6212 15.625 16.1458 15.1003 16.1458 14.4531ZM17.7083 2.73438V6.64062C17.7083 7.28784 18.233 7.8125 18.8802 7.8125H23.8281C24.4753 7.8125 25 7.28784 25 6.64062V2.73438C25 2.08716 24.4753 1.5625 23.8281 1.5625H18.8802C18.233 1.5625 17.7083 2.08716 17.7083 2.73438ZM16.1458 6.64062V2.73438C16.1458 2.08716 15.6212 1.5625 14.974 1.5625H10.026C9.37881 1.5625 8.85415 2.08716 8.85415 2.73438V6.64062C8.85415 7.28784 9.37881 7.8125 10.026 7.8125H14.9739C15.6212 7.8125 16.1458 7.28784 16.1458 6.64062ZM6.11978 9.375H1.17188C0.524658 9.375 0 9.89966 0 10.5469V14.4531C0 15.1003 0.524658 15.625 1.17188 15.625H6.11978C6.76699 15.625 7.29165 15.1003 7.29165 14.4531V10.5469C7.29165 9.89966 6.76699 9.375 6.11978 9.375ZM0 18.3594V22.2656C0 22.9128 0.524658 23.4375 1.17188 23.4375H6.11978C6.76699 23.4375 7.29165 22.9128 7.29165 22.2656V18.3594C7.29165 17.7122 6.76699 17.1875 6.11978 17.1875H1.17188C0.524658 17.1875 0 17.7122 0 18.3594ZM18.8802 15.625H23.8281C24.4753 15.625 25 15.1003 25 14.4531V10.5469C25 9.89966 24.4753 9.375 23.8281 9.375H18.8802C18.233 9.375 17.7083 9.89966 17.7083 10.5469V14.4531C17.7083 15.1003 18.233 15.625 18.8802 15.625ZM18.8802 23.4375H23.8281C24.4753 23.4375 25 22.9128 25 22.2656V18.3594C25 17.7122 24.4753 17.1875 23.8281 17.1875H18.8802C18.233 17.1875 17.7083 17.7122 17.7083 18.3594V22.2656C17.7083 22.9128 18.233 23.4375 18.8802 23.4375ZM8.85415 18.3594V22.2656C8.85415 22.9128 9.37881 23.4375 10.026 23.4375H14.9739C15.6211 23.4375 16.1458 22.9128 16.1458 22.2656V18.3594C16.1458 17.7122 15.6211 17.1875 14.9739 17.1875H10.026C9.37881 17.1875 8.85415 17.7122 8.85415 18.3594Z" fill="#7D8184"/>
</g>
</svg>
