<svg width="25" height="25" viewBox="0 0 25 25" fill="none" xmlns="http://www.w3.org/2000/svg">
<g id="th-list">
<path id="Vector" d="M7.29165 10.5469V14.4531C7.29165 15.1003 6.76699 15.625 6.11978 15.625H1.17188C0.524658 15.625 0 15.1003 0 14.4531V10.5469C0 9.89966 0.524658 9.375 1.17188 9.375H6.11978C6.76699 9.375 7.29165 9.89966 7.29165 10.5469ZM0 18.3594V22.2656C0 22.9128 0.524658 23.4375 1.17188 23.4375H6.11978C6.76699 23.4375 7.29165 22.9128 7.29165 22.2656V18.3594C7.29165 17.7122 6.76699 17.1875 6.11978 17.1875H1.17188C0.524658 17.1875 0 17.7122 0 18.3594ZM6.11978 1.5625H1.17188C0.524658 1.5625 0 2.08716 0 2.73438V6.64062C0 7.28784 0.524658 7.8125 1.17188 7.8125H6.11978C6.76699 7.8125 7.29165 7.28784 7.29165 6.64062V2.73438C7.29165 2.08716 6.76699 1.5625 6.11978 1.5625ZM10.026 23.4375H23.8281C24.4753 23.4375 25 22.9128 25 22.2656V18.3594C25 17.7122 24.4753 17.1875 23.8281 17.1875H10.026C9.37881 17.1875 8.85415 17.7122 8.85415 18.3594V22.2656C8.85415 22.9128 9.37881 23.4375 10.026 23.4375ZM8.85415 2.73438V6.64062C8.85415 7.28784 9.37881 7.8125 10.026 7.8125H23.8281C24.4753 7.8125 25 7.28784 25 6.64062V2.73438C25 2.08716 24.4753 1.5625 23.8281 1.5625H10.026C9.37881 1.5625 8.85415 2.08716 8.85415 2.73438ZM10.026 15.625H23.8281C24.4753 15.625 25 15.1003 25 14.4531V10.5469C25 9.89966 24.4753 9.375 23.8281 9.375H10.026C9.37881 9.375 8.85415 9.89966 8.85415 10.5469V14.4531C8.85415 15.1003 9.37881 15.625 10.026 15.625Z" fill="#7D8184"/>
</g>
</svg>
